<mxfile host="app.diagrams.net" modified="2023-08-29T21:36:32.796Z" agent="Mozilla/5.0 (Windows NT 10.0; Win64; x64) AppleWebKit/537.36 (KHTML, like Gecko) Chrome/116.0.0.0 Safari/537.36" etag="6c7HkjC106i5sd6_qvJz" version="21.6.9" type="github">
  <diagram id="R2lEEEUBdFMjLlhIrx00" name="Page-1">
    <mxGraphModel dx="1434" dy="790" grid="1" gridSize="10" guides="1" tooltips="1" connect="1" arrows="1" fold="1" page="1" pageScale="1" pageWidth="850" pageHeight="1100" math="0" shadow="0" extFonts="Permanent Marker^https://fonts.googleapis.com/css?family=Permanent+Marker">
      <root>
        <mxCell id="0" />
        <mxCell id="1" parent="0" />
        <mxCell id="KGDWBnh8bBXRwuSlFcBu-1" value="BERÇARIO" style="rounded=0;whiteSpace=wrap;html=1;" vertex="1" parent="1">
          <mxGeometry x="290" y="180" width="120" height="60" as="geometry" />
        </mxCell>
        <mxCell id="KGDWBnh8bBXRwuSlFcBu-3" value="RESGISTRO" style="rhombus;whiteSpace=wrap;html=1;" vertex="1" parent="1">
          <mxGeometry x="470" y="170" width="80" height="80" as="geometry" />
        </mxCell>
        <mxCell id="KGDWBnh8bBXRwuSlFcBu-4" value="1" style="text;html=1;strokeColor=none;fillColor=none;align=center;verticalAlign=middle;whiteSpace=wrap;rounded=0;" vertex="1" parent="1">
          <mxGeometry x="395" y="180" width="60" height="30" as="geometry" />
        </mxCell>
        <mxCell id="KGDWBnh8bBXRwuSlFcBu-5" value="" style="endArrow=none;dashed=1;html=1;rounded=0;" edge="1" parent="1">
          <mxGeometry width="50" height="50" relative="1" as="geometry">
            <mxPoint x="550" y="210" as="sourcePoint" />
            <mxPoint x="610" y="210" as="targetPoint" />
          </mxGeometry>
        </mxCell>
        <mxCell id="KGDWBnh8bBXRwuSlFcBu-6" value="" style="endArrow=none;dashed=1;html=1;rounded=0;" edge="1" parent="1">
          <mxGeometry width="50" height="50" relative="1" as="geometry">
            <mxPoint x="410" y="210" as="sourcePoint" />
            <mxPoint x="470" y="210" as="targetPoint" />
          </mxGeometry>
        </mxCell>
        <mxCell id="KGDWBnh8bBXRwuSlFcBu-7" value="N" style="text;html=1;strokeColor=none;fillColor=none;align=center;verticalAlign=middle;whiteSpace=wrap;rounded=0;" vertex="1" parent="1">
          <mxGeometry x="530" y="180" width="60" height="30" as="geometry" />
        </mxCell>
        <mxCell id="KGDWBnh8bBXRwuSlFcBu-8" value="BEBÊ" style="swimlane;whiteSpace=wrap;html=1;" vertex="1" parent="1">
          <mxGeometry x="610" y="110" width="200" height="200" as="geometry" />
        </mxCell>
        <mxCell id="KGDWBnh8bBXRwuSlFcBu-9" value="NOME&lt;br&gt;DATA DE NASCIMENTO&lt;br&gt;MÃE&lt;br&gt;PESO&lt;br&gt;MÉDICO" style="text;html=1;align=center;verticalAlign=middle;resizable=0;points=[];autosize=1;strokeColor=none;fillColor=none;" vertex="1" parent="KGDWBnh8bBXRwuSlFcBu-8">
          <mxGeometry x="20" y="55" width="160" height="90" as="geometry" />
        </mxCell>
        <mxCell id="KGDWBnh8bBXRwuSlFcBu-10" value="" style="endArrow=none;dashed=1;html=1;rounded=0;" edge="1" parent="1">
          <mxGeometry width="50" height="50" relative="1" as="geometry">
            <mxPoint x="709.5" y="370" as="sourcePoint" />
            <mxPoint x="709.5" y="310" as="targetPoint" />
          </mxGeometry>
        </mxCell>
        <mxCell id="KGDWBnh8bBXRwuSlFcBu-11" value="TER" style="rhombus;whiteSpace=wrap;html=1;" vertex="1" parent="1">
          <mxGeometry x="670" y="370" width="80" height="80" as="geometry" />
        </mxCell>
        <mxCell id="KGDWBnh8bBXRwuSlFcBu-12" value="N" style="text;html=1;strokeColor=none;fillColor=none;align=center;verticalAlign=middle;whiteSpace=wrap;rounded=0;" vertex="1" parent="1">
          <mxGeometry x="670" y="340" width="60" height="30" as="geometry" />
        </mxCell>
        <mxCell id="KGDWBnh8bBXRwuSlFcBu-13" value="" style="endArrow=none;dashed=1;html=1;rounded=0;" edge="1" parent="1">
          <mxGeometry width="50" height="50" relative="1" as="geometry">
            <mxPoint x="709.5" y="510" as="sourcePoint" />
            <mxPoint x="709.5" y="450" as="targetPoint" />
          </mxGeometry>
        </mxCell>
        <mxCell id="KGDWBnh8bBXRwuSlFcBu-14" value="MÃE" style="swimlane;whiteSpace=wrap;html=1;startSize=23;" vertex="1" parent="1">
          <mxGeometry x="610" y="510" width="200" height="200" as="geometry" />
        </mxCell>
        <mxCell id="KGDWBnh8bBXRwuSlFcBu-15" value="NOME&lt;br&gt;ENDEREÇO&lt;br&gt;TELEFONE&lt;br&gt;DATA DE NASCIMENTO" style="text;html=1;align=center;verticalAlign=middle;resizable=0;points=[];autosize=1;strokeColor=none;fillColor=none;" vertex="1" parent="KGDWBnh8bBXRwuSlFcBu-14">
          <mxGeometry x="20" y="65" width="160" height="70" as="geometry" />
        </mxCell>
        <mxCell id="KGDWBnh8bBXRwuSlFcBu-16" value="1" style="text;html=1;strokeColor=none;fillColor=none;align=center;verticalAlign=middle;whiteSpace=wrap;rounded=0;" vertex="1" parent="1">
          <mxGeometry x="690" y="480" width="60" height="30" as="geometry" />
        </mxCell>
        <mxCell id="KGDWBnh8bBXRwuSlFcBu-17" value="" style="endArrow=none;dashed=1;html=1;rounded=0;" edge="1" parent="1">
          <mxGeometry width="50" height="50" relative="1" as="geometry">
            <mxPoint x="670" y="409.5" as="sourcePoint" />
            <mxPoint x="510" y="410" as="targetPoint" />
          </mxGeometry>
        </mxCell>
        <mxCell id="KGDWBnh8bBXRwuSlFcBu-18" value="MÉDICO" style="swimlane;whiteSpace=wrap;html=1;" vertex="1" parent="1">
          <mxGeometry x="310" y="330" width="200" height="200" as="geometry" />
        </mxCell>
        <mxCell id="KGDWBnh8bBXRwuSlFcBu-19" value="CRM&lt;br&gt;NOME&lt;br&gt;TELEFONE&lt;br&gt;ESPECIALIDADE" style="text;html=1;align=center;verticalAlign=middle;resizable=0;points=[];autosize=1;strokeColor=none;fillColor=none;" vertex="1" parent="KGDWBnh8bBXRwuSlFcBu-18">
          <mxGeometry x="40" y="65" width="120" height="70" as="geometry" />
        </mxCell>
        <mxCell id="KGDWBnh8bBXRwuSlFcBu-20" value="1" style="text;html=1;strokeColor=none;fillColor=none;align=center;verticalAlign=middle;whiteSpace=wrap;rounded=0;" vertex="1" parent="1">
          <mxGeometry x="510" y="380" width="60" height="30" as="geometry" />
        </mxCell>
      </root>
    </mxGraphModel>
  </diagram>
</mxfile>
